<svg width="180" height="63" viewBox="0 0 180 63" fill="none" xmlns="http://www.w3.org/2000/svg">
<rect x="1" y="1" width="180" height="63" rx="9" fill="black"/>
<path d="M46.0585 33.207C46.075 31.7552 46.4491 30.3309 47.1464 29.0656C47.8437 27.8002 48.8417 26.7343 50.0486 25.9662C49.2885 24.8432 48.2813 23.9177 47.1077 23.2639C45.934 22.61 44.6267 22.246 43.2904 22.201C40.4462 21.8906 37.6893 23.9594 36.2414 23.9594C34.7631 23.9594 32.533 22.2361 30.1306 22.2868C28.5724 22.3419 27.0549 22.8095 25.727 23.6436C24.3991 24.4778 23.3063 25.6499 22.5557 27.045C19.28 32.8853 21.7229 41.4708 24.8598 46.1928C26.4303 48.5047 28.2642 51.0907 30.6646 50.9976C33.0132 50.8941 33.8907 49.4542 36.7267 49.4542C39.5354 49.4542 40.3581 50.9976 42.806 50.9396C45.3259 50.8983 46.9137 48.6164 48.4284 46.2848C49.5574 44.6347 50.4252 42.8137 51 40.8884C49.5307 40.2431 48.2791 39.1718 47.4003 37.8073C46.5216 36.4428 46.0544 34.8451 46.0565 33.2121L46.0585 33.207ZM41.4321 19.0916C42.8072 17.3856 43.4825 15.2028 43.3167 13C41.2125 13.2297 39.2717 14.2646 37.8848 15.8963C36.5075 17.5145 35.8114 19.6221 35.9475 21.7613C37 21.7713 38.0409 21.536 38.9908 21.0731C39.9408 20.6103 40.7747 19.9322 41.4291 19.0905L41.4321 19.0916Z" fill="white"/>
<path d="M73.5371 21.8438C73.5371 21.6445 73.5059 21.4688 73.4434 21.3164C73.3848 21.1602 73.2793 21.0195 73.127 20.8945C72.9785 20.7695 72.7715 20.6504 72.5059 20.5371C72.2441 20.4238 71.9121 20.3086 71.5098 20.1914C71.0879 20.0664 70.707 19.9277 70.3672 19.7754C70.0273 19.6191 69.7363 19.4414 69.4941 19.2422C69.252 19.043 69.0664 18.8145 68.9375 18.5566C68.8086 18.2988 68.7441 18.0039 68.7441 17.6719C68.7441 17.3398 68.8125 17.0332 68.9492 16.752C69.0859 16.4707 69.2812 16.2266 69.5352 16.0195C69.793 15.8086 70.0996 15.6445 70.4551 15.5273C70.8105 15.4102 71.207 15.3516 71.6445 15.3516C72.2852 15.3516 72.8281 15.4746 73.2734 15.7207C73.7227 15.9629 74.0645 16.2812 74.2988 16.6758C74.5332 17.0664 74.6504 17.4844 74.6504 17.9297H73.5254C73.5254 17.6094 73.457 17.3262 73.3203 17.0801C73.1836 16.8301 72.9766 16.6348 72.6992 16.4941C72.4219 16.3496 72.0703 16.2773 71.6445 16.2773C71.2422 16.2773 70.9102 16.3379 70.6484 16.459C70.3867 16.5801 70.1914 16.7441 70.0625 16.9512C69.9375 17.1582 69.875 17.3945 69.875 17.6602C69.875 17.8398 69.9121 18.0039 69.9863 18.1523C70.0645 18.2969 70.1836 18.4316 70.3438 18.5566C70.5078 18.6816 70.7148 18.7969 70.9648 18.9023C71.2188 19.0078 71.5215 19.1094 71.873 19.207C72.3574 19.3438 72.7754 19.4961 73.127 19.6641C73.4785 19.832 73.7676 20.0215 73.9941 20.2324C74.2246 20.4395 74.3945 20.6758 74.5039 20.9414C74.6172 21.2031 74.6738 21.5 74.6738 21.832C74.6738 22.1797 74.6035 22.4941 74.4629 22.7754C74.3223 23.0566 74.1211 23.2969 73.8594 23.4961C73.5977 23.6953 73.2832 23.8496 72.916 23.959C72.5527 24.0645 72.1465 24.1172 71.6973 24.1172C71.3027 24.1172 70.9141 24.0625 70.5312 23.9531C70.1523 23.8438 69.8066 23.6797 69.4941 23.4609C69.1855 23.2422 68.9375 22.9727 68.75 22.6523C68.5664 22.3281 68.4746 21.9531 68.4746 21.5273H69.5996C69.5996 21.8203 69.6562 22.0723 69.7695 22.2832C69.8828 22.4902 70.0371 22.6621 70.2324 22.7988C70.4316 22.9355 70.6562 23.0371 70.9062 23.1035C71.1602 23.166 71.4238 23.1973 71.6973 23.1973C72.0918 23.1973 72.4258 23.1426 72.6992 23.0332C72.9727 22.9238 73.1797 22.7676 73.3203 22.5645C73.4648 22.3613 73.5371 22.1211 73.5371 21.8438ZM78.6055 17.6602V18.4922H75.1777V17.6602H78.6055ZM76.3379 16.1191H77.4219V22.4297C77.4219 22.6445 77.4551 22.8066 77.5215 22.916C77.5879 23.0254 77.6738 23.0977 77.7793 23.1328C77.8848 23.168 77.998 23.1855 78.1191 23.1855C78.209 23.1855 78.3027 23.1777 78.4004 23.1621C78.502 23.1426 78.5781 23.127 78.6289 23.1152L78.6348 24C78.5488 24.0273 78.4355 24.0527 78.2949 24.0762C78.1582 24.1035 77.9922 24.1172 77.7969 24.1172C77.5312 24.1172 77.2871 24.0645 77.0645 23.959C76.8418 23.8535 76.6641 23.6777 76.5312 23.4316C76.4023 23.1816 76.3379 22.8457 76.3379 22.4238V16.1191ZM83.6152 22.916V19.6523C83.6152 19.4023 83.5645 19.1855 83.4629 19.002C83.3652 18.8145 83.2168 18.6699 83.0176 18.5684C82.8184 18.4668 82.5723 18.416 82.2793 18.416C82.0059 18.416 81.7656 18.4629 81.5586 18.5566C81.3555 18.6504 81.1953 18.7734 81.0781 18.9258C80.9648 19.0781 80.9082 19.2422 80.9082 19.418H79.8242C79.8242 19.1914 79.8828 18.9668 80 18.7441C80.1172 18.5215 80.2852 18.3203 80.5039 18.1406C80.7266 17.957 80.9922 17.8125 81.3008 17.707C81.6133 17.5977 81.9609 17.543 82.3438 17.543C82.8047 17.543 83.2109 17.6211 83.5625 17.7773C83.918 17.9336 84.1953 18.1699 84.3945 18.4863C84.5977 18.7988 84.6992 19.1914 84.6992 19.6641V22.6172C84.6992 22.8281 84.7168 23.0527 84.752 23.291C84.791 23.5293 84.8477 23.7344 84.9219 23.9062V24H83.791C83.7363 23.875 83.6934 23.709 83.6621 23.502C83.6309 23.291 83.6152 23.0957 83.6152 22.916ZM83.8027 20.1562L83.8145 20.918H82.7188C82.4102 20.918 82.1348 20.9434 81.8926 20.9941C81.6504 21.041 81.4473 21.1133 81.2832 21.2109C81.1191 21.3086 80.9941 21.4316 80.9082 21.5801C80.8223 21.7246 80.7793 21.8945 80.7793 22.0898C80.7793 22.2891 80.8242 22.4707 80.9141 22.6348C81.0039 22.7988 81.1387 22.9297 81.3184 23.0273C81.502 23.1211 81.7266 23.168 81.9922 23.168C82.3242 23.168 82.6172 23.0977 82.8711 22.957C83.125 22.8164 83.3262 22.6445 83.4746 22.4414C83.627 22.2383 83.709 22.041 83.7207 21.8496L84.1836 22.3711C84.1562 22.5352 84.082 22.7168 83.9609 22.916C83.8398 23.1152 83.6777 23.3066 83.4746 23.4902C83.2754 23.6699 83.0371 23.8203 82.7598 23.9414C82.4863 24.0586 82.1777 24.1172 81.834 24.1172C81.4043 24.1172 81.0273 24.0332 80.7031 23.8652C80.3828 23.6973 80.1328 23.4727 79.9531 23.1914C79.7773 22.9062 79.6895 22.5879 79.6895 22.2363C79.6895 21.8965 79.7559 21.5977 79.8887 21.3398C80.0215 21.0781 80.2129 20.8613 80.4629 20.6895C80.7129 20.5137 81.0137 20.3809 81.3652 20.291C81.7168 20.2012 82.1094 20.1562 82.543 20.1562H83.8027ZM81.8633 16.7227L83 15H84.3066L82.7363 16.7227H81.8633ZM87.4883 15V24H86.4043V15H87.4883ZM87.2305 20.5898L86.7793 20.5723C86.7832 20.1387 86.8477 19.7383 86.9727 19.3711C87.0977 19 87.2734 18.6777 87.5 18.4043C87.7266 18.1309 87.9961 17.9199 88.3086 17.7715C88.625 17.6191 88.9746 17.543 89.3574 17.543C89.6699 17.543 89.9512 17.5859 90.2012 17.6719C90.4512 17.7539 90.6641 17.8867 90.8398 18.0703C91.0195 18.2539 91.1562 18.4922 91.25 18.7852C91.3438 19.0742 91.3906 19.4277 91.3906 19.8457V24H90.3008V19.834C90.3008 19.502 90.252 19.2363 90.1543 19.0371C90.0566 18.834 89.9141 18.6875 89.7266 18.5977C89.5391 18.5039 89.3086 18.457 89.0352 18.457C88.7656 18.457 88.5195 18.5137 88.2969 18.627C88.0781 18.7402 87.8887 18.8965 87.7285 19.0957C87.5723 19.2949 87.4492 19.5234 87.3594 19.7812C87.2734 20.0352 87.2305 20.3047 87.2305 20.5898ZM94.0977 19.0137V24H93.0137V17.6602H94.0391L94.0977 19.0137ZM93.8398 20.5898L93.3887 20.5723C93.3926 20.1387 93.457 19.7383 93.582 19.3711C93.707 19 93.8828 18.6777 94.1094 18.4043C94.3359 18.1309 94.6055 17.9199 94.918 17.7715C95.2344 17.6191 95.584 17.543 95.9668 17.543C96.2793 17.543 96.5605 17.5859 96.8105 17.6719C97.0605 17.7539 97.2734 17.8867 97.4492 18.0703C97.6289 18.2539 97.7656 18.4922 97.8594 18.7852C97.9531 19.0742 98 19.4277 98 19.8457V24H96.9102V19.834C96.9102 19.502 96.8613 19.2363 96.7637 19.0371C96.666 18.834 96.5234 18.6875 96.3359 18.5977C96.1484 18.5039 95.918 18.457 95.6445 18.457C95.375 18.457 95.1289 18.5137 94.9062 18.627C94.6875 18.7402 94.498 18.8965 94.3379 19.0957C94.1816 19.2949 94.0586 19.5234 93.9688 19.7812C93.8828 20.0352 93.8398 20.3047 93.8398 20.5898ZM99.3594 20.9004V20.7656C99.3594 20.3086 99.4258 19.8848 99.5586 19.4941C99.6914 19.0996 99.8828 18.7578 100.133 18.4688C100.383 18.1758 100.686 17.9492 101.041 17.7891C101.396 17.625 101.795 17.543 102.236 17.543C102.682 17.543 103.082 17.625 103.438 17.7891C103.797 17.9492 104.102 18.1758 104.352 18.4688C104.605 18.7578 104.799 19.0996 104.932 19.4941C105.064 19.8848 105.131 20.3086 105.131 20.7656V20.9004C105.131 21.3574 105.064 21.7812 104.932 22.1719C104.799 22.5625 104.605 22.9043 104.352 23.1973C104.102 23.4863 103.799 23.7129 103.443 23.877C103.092 24.0371 102.693 24.1172 102.248 24.1172C101.803 24.1172 101.402 24.0371 101.047 23.877C100.691 23.7129 100.387 23.4863 100.133 23.1973C99.8828 22.9043 99.6914 22.5625 99.5586 22.1719C99.4258 21.7812 99.3594 21.3574 99.3594 20.9004ZM100.443 20.7656V20.9004C100.443 21.2168 100.48 21.5156 100.555 21.7969C100.629 22.0742 100.74 22.3203 100.889 22.5352C101.041 22.75 101.23 22.9199 101.457 23.0449C101.684 23.166 101.947 23.2266 102.248 23.2266C102.545 23.2266 102.805 23.166 103.027 23.0449C103.254 22.9199 103.441 22.75 103.59 22.5352C103.738 22.3203 103.85 22.0742 103.924 21.7969C104.002 21.5156 104.041 21.2168 104.041 20.9004V20.7656C104.041 20.4531 104.002 20.1582 103.924 19.8809C103.85 19.5996 103.736 19.3516 103.584 19.1367C103.436 18.918 103.248 18.7461 103.021 18.6211C102.799 18.4961 102.537 18.4336 102.236 18.4336C101.939 18.4336 101.678 18.4961 101.451 18.6211C101.229 18.7461 101.041 18.918 100.889 19.1367C100.74 19.3516 100.629 19.5996 100.555 19.8809C100.48 20.1582 100.443 20.4531 100.443 20.7656ZM110.369 22.5352V17.6602H111.459V24H110.422L110.369 22.5352ZM110.574 21.1992L111.025 21.1875C111.025 21.6094 110.98 22 110.891 22.3594C110.805 22.7148 110.664 23.0234 110.469 23.2852C110.273 23.5469 110.018 23.752 109.701 23.9004C109.385 24.0449 109 24.1172 108.547 24.1172C108.238 24.1172 107.955 24.0723 107.697 23.9824C107.443 23.8926 107.225 23.7539 107.041 23.5664C106.857 23.3789 106.715 23.1348 106.613 22.834C106.516 22.5332 106.467 22.1719 106.467 21.75V17.6602H107.551V21.7617C107.551 22.0469 107.582 22.2832 107.645 22.4707C107.711 22.6543 107.799 22.8008 107.908 22.9102C108.021 23.0156 108.146 23.0898 108.283 23.1328C108.424 23.1758 108.568 23.1973 108.717 23.1973C109.178 23.1973 109.543 23.1094 109.812 22.9336C110.082 22.7539 110.275 22.5137 110.393 22.2129C110.514 21.9082 110.574 21.5703 110.574 21.1992ZM115.766 17.6602V18.4922H112.338V17.6602H115.766ZM113.498 16.1191H114.582V22.4297C114.582 22.6445 114.615 22.8066 114.682 22.916C114.748 23.0254 114.834 23.0977 114.939 23.1328C115.045 23.168 115.158 23.1855 115.279 23.1855C115.369 23.1855 115.463 23.1777 115.561 23.1621C115.662 23.1426 115.738 23.127 115.789 23.1152L115.795 24C115.709 24.0273 115.596 24.0527 115.455 24.0762C115.318 24.1035 115.152 24.1172 114.957 24.1172C114.691 24.1172 114.447 24.0645 114.225 23.959C114.002 23.8535 113.824 23.6777 113.691 23.4316C113.562 23.1816 113.498 22.8457 113.498 22.4238V16.1191ZM121.941 23.0215L123.676 17.6602H124.783L122.504 24H121.777L121.941 23.0215ZM120.494 17.6602L122.281 23.0508L122.404 24H121.678L119.381 17.6602H120.494Z" fill="white"/>
<g clip-path="url(#clip0_3357_129418)">
<path d="M77.8728 42.8667H71.9387L70.5132 47.1647H67.9977L73.6193 31.265H76.2313L81.8545 47.1654H79.2976L77.8728 42.8667ZM72.5523 40.8843H77.2562L74.9376 33.91H74.8725L72.5523 40.8851V40.8843ZM93.9931 41.3692C93.9931 44.9693 92.1057 47.2849 89.2562 47.2849C88.5298 47.321 87.8081 47.1495 87.1755 46.7904C86.543 46.4314 86.0258 45.8996 85.6844 45.2574H85.6308V51.0023H83.3007V35.5691H85.5565V37.4971H85.5994C85.9577 36.8582 86.4842 36.3297 87.1217 35.969C87.7593 35.6083 88.4835 35.4292 89.2156 35.4512C92.0973 35.4512 93.9954 37.7775 93.9954 41.3692H93.9931ZM91.5986 41.3692C91.5986 39.0214 90.4106 37.4795 88.5982 37.4795C86.8181 37.4795 85.6208 39.0544 85.6208 41.3692C85.6208 43.7047 86.8181 45.2688 88.5982 45.2688C90.4113 45.2688 91.5986 43.7369 91.5986 41.3692ZM106.488 41.3692C106.488 44.9693 104.599 47.2849 101.75 47.2849C101.024 47.3212 100.302 47.1499 99.6693 46.791C99.0366 46.432 98.5193 45.9003 98.1777 45.2581H98.1241V51.003H95.7947V35.5691H98.0506V37.4971H98.0934C98.4512 36.858 98.9771 36.3291 99.6143 35.9679C100.251 35.6066 100.975 35.4269 101.707 35.4481C104.589 35.4481 106.489 37.7744 106.489 41.3661L106.488 41.3692ZM104.092 41.3692C104.092 39.0214 102.904 37.4795 101.092 37.4795C99.3121 37.4795 98.1149 39.0544 98.1149 41.3692C98.1149 43.7047 99.3114 45.2688 101.092 45.2688C102.905 45.2688 104.092 43.7369 104.092 41.3692ZM114.744 42.7342C114.917 44.3106 116.416 45.3462 118.466 45.3462C120.43 45.3462 121.844 44.3106 121.844 42.8897C121.844 41.6549 120.991 40.9157 118.974 40.4102L116.956 39.913C114.097 39.2076 112.769 37.8449 112.769 35.6235C112.769 32.879 115.11 30.9954 118.433 30.9954C121.727 30.9954 123.98 32.8797 124.056 35.6235H121.704C121.563 34.0364 120.279 33.0781 118.402 33.0781C116.525 33.0781 115.241 34.0479 115.241 35.458C115.241 36.5825 116.061 37.2436 118.067 37.7499L119.782 38.1804C122.977 38.9517 124.302 40.2623 124.302 42.5879C124.302 45.5622 121.984 47.4259 118.293 47.4259C114.84 47.4259 112.509 45.6067 112.358 42.7304H114.744V42.7342ZM129.334 32.8284V35.5691H131.492V37.4535H129.334V43.8433C129.334 44.8391 129.766 45.2987 130.713 45.2987C130.969 45.2939 131.225 45.2755 131.479 45.2436V47.1172C131.053 47.1984 130.619 47.2351 130.185 47.2267C127.887 47.2267 126.99 46.3451 126.99 44.0969V37.4573H125.339V35.5691H126.99V32.8284H129.331H129.334ZM132.742 41.3692C132.742 37.7216 134.846 35.4297 138.126 35.4297C141.406 35.4297 143.511 37.7216 143.511 41.3692C143.511 45.0168 141.428 47.3087 138.126 47.3087C134.823 47.3087 132.742 45.0268 132.742 41.37V41.3692ZM141.137 41.3692C141.137 38.8667 140.014 37.3906 138.126 37.3906C136.237 37.3906 135.115 38.8782 135.115 41.3692C135.115 43.8809 136.237 45.3462 138.126 45.3462C140.014 45.3462 141.137 43.8809 141.137 41.3692ZM145.432 35.5691H147.653V37.5454H147.707C147.851 36.9347 148.201 36.3924 148.699 36.0106C149.197 35.6289 149.811 35.4312 150.438 35.4512C150.707 35.4504 150.974 35.4802 151.236 35.54V37.766C150.897 37.6601 150.543 37.6114 150.188 37.622C149.848 37.609 149.51 37.6709 149.196 37.8032C148.882 37.9356 148.602 38.1352 148.374 38.388C148.142 38.6436 147.968 38.9455 147.863 39.2737C147.757 39.6019 147.722 39.9489 147.761 40.2914V47.1677H145.432V35.5691ZM161.977 43.7568C161.664 45.861 159.657 47.3056 157.089 47.3056C153.787 47.3056 151.738 45.0459 151.738 41.4205C151.738 37.7951 153.798 35.4266 156.991 35.4266C160.132 35.4266 162.107 37.6296 162.107 41.144V41.9598H154.095V42.1038C154.056 42.5297 154.107 42.9589 154.245 43.3638C154.382 43.7688 154.603 44.1404 154.893 44.4546C155.179 44.7639 155.529 45.0078 155.917 45.1696C156.306 45.3314 156.726 45.4073 157.147 45.3922C157.701 45.4419 158.257 45.3097 158.73 45.0156C159.202 44.7215 159.567 44.2815 159.767 43.7621L161.977 43.7568ZM154.1 40.2976H159.776C159.797 39.915 159.74 39.5322 159.608 39.1724C159.476 38.8126 159.273 38.4834 159.01 38.2049C158.751 37.9298 158.437 37.712 158.089 37.5657C157.74 37.4194 157.365 37.3477 156.987 37.3554C156.607 37.3537 156.229 37.4285 155.878 37.5753C155.527 37.7222 155.208 37.9381 154.942 38.2103C154.398 38.7681 154.096 39.5176 154.1 40.2968L154.1 40.2976Z" fill="white"/>
</g>
<rect x="1" y="1" width="180" height="63" rx="9" stroke="#C6C6C6" stroke-width="2"/>
<defs>
<clipPath id="clip0_3357_129418">
<rect width="94.1095" height="20" fill="white" transform="translate(68 31)"/>
</clipPath>
</defs>
</svg>
