<svg width="180" height="63" viewBox="0 0 180 63" fill="none" xmlns="http://www.w3.org/2000/svg">
<rect x="1" y="1" width="180" height="63" rx="9" fill="black"/>
<path d="M34.8696 31.1451L19.1478 47.8422C19.6354 49.6597 21.2903 50.9896 23.2555 50.9896C24.0387 50.9896 24.7775 50.7827 25.4129 50.3985L25.4572 50.369L43.1591 40.1586L34.8696 31.1304V31.1451Z" fill="#D75532"/>
<path d="M50.7983 28.3081H50.7836L43.1443 23.8605L34.5298 31.5293L43.1738 40.1734L50.7836 35.7849C52.1134 35.0609 53.0148 33.6571 53.0148 32.0465C53.0148 30.4359 52.1282 29.0322 50.7983 28.3229V28.3081Z" fill="#FFCC32"/>
<path d="M19.1478 16.1621C19.0591 16.5167 19 16.8714 19 17.2555V46.7636C19 47.1478 19.0443 47.5024 19.1478 47.857L35.4163 31.5884L19.1478 16.1621Z" fill="#0075BC"/>
<path d="M34.9878 32.0022L43.1295 23.8605L25.4424 13.6058C24.807 13.2216 24.0535 13 23.2408 13C21.2903 13 19.6206 14.3446 19.1478 16.1473L35.0026 31.9874L34.9878 32.0022Z" fill="#00A176"/>
<path d="M75.5527 15.4688V24H74.416L70.1211 17.4199V24H68.9902V15.4688H70.1211L74.4336 22.0664V15.4688H75.5527ZM77.7852 15.4688L80 19.752L82.2207 15.4688H83.5039L80.5625 20.8125V24H79.4316V20.8125L76.4902 15.4688H77.7852ZM91.1621 15.4688V24H90.0254L85.7305 17.4199V24H84.5996V15.4688H85.7305L90.043 22.0664V15.4688H91.1621ZM94.3789 15.4688V24H93.248V15.4688H94.3789ZM93.2129 14.8359L94.3496 13.1133H95.6562L94.0859 14.8359H93.2129ZM105.975 15.4688V24H104.838L100.543 17.4199V24H99.4121V15.4688H100.543L104.855 22.0664V15.4688H105.975ZM111.242 16.2246L108.418 24H107.264L110.516 15.4688H111.26L111.242 16.2246ZM113.609 24L110.779 16.2246L110.762 15.4688H111.506L114.77 24H113.609ZM113.463 20.8418V21.7676H108.67V20.8418H113.463Z" fill="white"/>
<g clip-path="url(#clip0_3357_129420)">
<path d="M99.8209 36.5258C98.8337 36.5294 97.8697 36.8255 97.0506 37.3766C96.2316 37.9277 95.5942 38.7092 95.2189 39.6223C94.8436 40.5354 94.7474 41.5392 94.9422 42.507C95.137 43.4748 95.6142 44.3631 96.3136 45.0599C97.0129 45.7567 97.903 46.2306 98.8715 46.4219C99.84 46.6131 100.843 46.5131 101.755 46.1345C102.667 45.7559 103.446 45.1156 103.994 44.2945C104.542 43.4735 104.835 42.5084 104.835 41.5212C104.845 40.8609 104.721 40.2054 104.473 39.5937C104.224 38.982 103.855 38.4265 103.387 37.9605C102.919 37.4944 102.362 37.1272 101.75 36.8807C101.137 36.6342 100.481 36.5135 99.8209 36.5258ZM99.8209 44.5475C99.213 44.5909 98.606 44.4503 98.0791 44.1439C97.5522 43.8376 97.1298 43.3797 96.8668 42.8298C96.6039 42.28 96.5125 41.6637 96.6047 41.0612C96.6969 40.4588 96.9684 39.898 97.3838 39.452C97.7992 39.006 98.3393 38.6954 98.9337 38.5607C99.5281 38.4259 100.149 38.4733 100.716 38.6965C101.283 38.9198 101.77 39.3087 102.113 39.8125C102.456 40.3163 102.64 40.9117 102.639 41.5212C102.658 41.9061 102.599 42.2908 102.466 42.6526C102.334 43.0144 102.13 43.3461 101.868 43.6281C101.605 43.9101 101.289 44.1367 100.937 44.2946C100.586 44.4525 100.206 44.5385 99.8209 44.5475ZM88.8835 36.5258C87.8963 36.5294 86.9323 36.8255 86.1133 37.3766C85.2942 37.9277 84.6568 38.7092 84.2815 39.6223C83.9063 40.5354 83.81 41.5392 84.0048 42.507C84.1996 43.4748 84.6768 44.3631 85.3762 45.0599C86.0755 45.7567 86.9656 46.2306 87.9341 46.4219C88.9026 46.6131 89.9061 46.5131 90.8178 46.1345C91.7295 45.7559 92.5086 45.1156 93.0567 44.2945C93.6048 43.4735 93.8973 42.5084 93.8973 41.5212C93.907 40.8609 93.7839 40.2055 93.5351 39.5938C93.2863 38.9821 92.9171 38.4267 92.4493 37.9607C91.9815 37.4946 91.4248 37.1274 90.8122 36.8809C90.1996 36.6344 89.5437 36.5136 88.8835 36.5258ZM88.8835 44.5475C88.2756 44.5909 87.6686 44.4503 87.1418 44.1439C86.6149 43.8376 86.1924 43.3797 85.9294 42.8298C85.6665 42.28 85.5751 41.6637 85.6674 41.0612C85.7596 40.4588 86.031 39.898 86.4464 39.452C86.8618 39.006 87.4019 38.6954 87.9963 38.5607C88.5907 38.4259 89.2119 38.4733 89.779 38.6965C90.3461 38.9198 90.8328 39.3087 91.1758 39.8125C91.5188 40.3163 91.7022 40.9117 91.702 41.5212C91.7204 41.9061 91.6616 42.2908 91.5291 42.6526C91.3965 43.0144 91.1929 43.3461 90.9303 43.6281C90.6677 43.9101 90.3513 44.1367 89.9998 44.2946C89.6483 44.4525 89.2687 44.5385 88.8835 44.5475ZM75.8714 38.0574V40.1775H80.9419C80.8689 41.1712 80.4624 42.1112 79.7883 42.845C79.2801 43.363 78.6689 43.7687 77.9943 44.0359C77.3196 44.3031 76.5964 44.4259 75.8714 44.3964C74.3982 44.3634 72.9965 43.755 71.9663 42.7014C70.9361 41.6479 70.3593 40.2329 70.3593 38.7594C70.3593 37.2858 70.9361 35.8708 71.9663 34.8173C72.9965 33.7637 74.3982 33.1553 75.8714 33.1223C77.2951 33.1035 78.6686 33.6476 79.6933 34.6361L81.1887 33.1407C80.4892 32.4482 79.6585 31.9023 78.7453 31.5351C77.8321 31.1679 76.8548 30.9867 75.8707 31.0021C74.8431 30.9882 73.8229 31.1786 72.8695 31.5623C71.9161 31.9459 71.0484 32.5151 70.3168 33.2369C69.5852 33.9587 69.0043 34.8186 68.6078 35.7667C68.2113 36.7149 68.0071 37.7324 68.0071 38.7601C68.0071 39.7878 68.2113 40.8052 68.6078 41.7534C69.0043 42.7015 69.5852 43.5614 70.3168 44.2832C71.0484 45.005 71.9161 45.5742 72.8695 45.9578C73.8229 46.3415 74.8431 46.5319 75.8707 46.518C76.8753 46.5596 77.8773 46.3872 78.8102 46.012C79.7431 45.6368 80.5855 45.0675 81.2816 44.3418C82.5177 42.9928 83.1766 41.2135 83.1174 39.3847C83.1223 38.9396 83.0838 38.495 83.0025 38.0574H75.8714ZM129.084 39.7031C128.784 38.7984 128.212 38.0081 127.447 37.4395C126.682 36.8709 125.761 36.5517 124.808 36.5251C124.166 36.529 123.532 36.663 122.943 36.9191C122.354 37.1752 121.824 37.548 121.384 38.0149C120.943 38.4819 120.602 39.0333 120.381 39.6358C120.16 40.2384 120.063 40.8795 120.097 41.5205C120.082 42.1771 120.2 42.83 120.444 43.44C120.688 44.05 121.052 44.6046 121.514 45.0708C121.977 45.537 122.529 45.9052 123.137 46.1533C123.745 46.4015 124.397 46.5245 125.054 46.5151C125.877 46.5197 126.688 46.3199 127.414 45.9335C128.141 45.5471 128.76 44.9863 129.216 44.3014L127.514 43.1669C127.259 43.5905 126.898 43.9405 126.467 44.1826C126.036 44.4248 125.55 44.5507 125.055 44.5482C124.546 44.5677 124.043 44.434 123.611 44.1643C123.179 43.8946 122.838 43.5015 122.632 43.0357L129.312 40.2704L129.084 39.7031ZM122.272 41.3687C122.249 41.0052 122.298 40.6407 122.417 40.2965C122.536 39.9523 122.723 39.6353 122.966 39.364C123.209 39.0927 123.504 38.8726 123.833 38.7166C124.162 38.5605 124.519 38.4717 124.883 38.4552C125.262 38.43 125.64 38.517 125.97 38.7054C126.299 38.8938 126.566 39.1752 126.737 39.5145L122.272 41.3687ZM116.843 46.2117H119.037V31.5297H116.843V46.2117ZM113.246 37.6404H113.171C112.838 37.278 112.43 36.991 111.977 36.7985C111.523 36.606 111.034 36.5126 110.541 36.5244C109.254 36.5797 108.037 37.1301 107.146 38.0608C106.254 38.9915 105.756 40.2306 105.756 41.5194C105.756 42.8082 106.254 44.0473 107.146 44.978C108.037 45.9087 109.254 46.4591 110.541 46.5144C111.036 46.5278 111.527 46.4332 111.981 46.2373C112.436 46.0414 112.842 45.7488 113.171 45.3799H113.246V46.0996C113.246 48.0106 112.226 49.0323 110.579 49.0323C110.03 49.0191 109.498 48.8429 109.049 48.5261C108.601 48.2092 108.257 47.7662 108.062 47.2533L106.151 48.0482C106.511 48.925 107.125 49.6743 107.914 50.2001C108.702 50.7259 109.63 51.0042 110.578 50.9993C113.151 50.9993 115.329 49.4854 115.329 45.7962V36.8278H113.246V37.6404ZM110.731 44.5461C110.349 44.5352 109.974 44.4483 109.626 44.2905C109.279 44.1326 108.967 43.907 108.708 43.6268C108.449 43.3467 108.248 43.0176 108.118 42.659C107.988 42.3003 107.931 41.9193 107.95 41.5382C107.928 41.1545 107.983 40.7704 108.112 40.4083C108.241 40.0463 108.441 39.7135 108.7 39.4296C108.959 39.1457 109.272 38.9163 109.62 38.7548C109.969 38.5933 110.347 38.503 110.731 38.4892C112.226 38.4892 113.398 39.7762 113.398 41.5382C113.428 41.9125 113.382 42.2889 113.263 42.645C113.144 43.0011 112.954 43.3295 112.705 43.6104C112.456 43.8914 112.152 44.1192 111.813 44.2803C111.474 44.4413 111.106 44.5322 110.731 44.5475V44.5461ZM139.366 31.5339H134.114V46.2117H136.305V40.6504H139.365C139.984 40.6832 140.603 40.5895 141.185 40.3752C141.767 40.1608 142.299 39.8302 142.749 39.4036C143.199 38.9769 143.557 38.4631 143.802 37.8935C144.046 37.3239 144.173 36.7104 144.173 36.0904C144.173 35.4704 144.046 34.8569 143.802 34.2873C143.557 33.7177 143.199 33.2039 142.749 32.7773C142.299 32.3506 141.767 32.02 141.185 31.8056C140.603 31.5913 139.984 31.4976 139.365 31.5304L139.366 31.5339ZM139.422 38.6104H136.302V33.5761H139.422C140.09 33.5761 140.73 33.8413 141.202 34.3133C141.674 34.7854 141.94 35.4256 141.94 36.0932C141.94 36.7609 141.674 37.4011 141.202 37.8732C140.73 38.3452 140.09 38.6104 139.422 38.6104ZM152.966 36.5024C152.166 36.4557 151.37 36.6434 150.675 37.0426C149.98 37.4417 149.417 38.0349 149.054 38.7494L151.001 39.562C151.194 39.2072 151.486 38.9163 151.841 38.725C152.197 38.5337 152.601 38.4503 153.003 38.4849C154.138 38.4849 155.289 39.1649 155.308 40.3746V40.5249C154.604 40.1509 153.819 39.956 153.022 39.9577C150.926 39.9577 148.791 41.1099 148.791 43.2626C148.791 45.2275 150.51 46.4939 152.436 46.4939C152.988 46.5263 153.539 46.4102 154.03 46.1575C154.522 45.9049 154.937 45.5249 155.232 45.0573H155.308V46.1918H157.423V40.559C157.424 37.9531 155.479 36.4974 152.966 36.4974L152.966 36.5024ZM152.704 44.5454C151.985 44.5454 150.984 44.1873 150.984 43.2995C150.984 42.165 152.23 41.7318 153.307 41.7318C154.007 41.7132 154.698 41.8827 155.31 42.2224C155.229 42.8591 154.921 43.4451 154.442 43.8721C153.963 44.2991 153.346 44.5383 152.704 44.5454ZM165.133 36.8165L162.62 43.1818H162.545L159.936 36.8193H157.576L161.484 45.7153L159.255 50.6646H161.54L167.567 36.8186L165.133 36.8165ZM145.391 46.2117H147.582V31.5339H145.391V46.2117Z" fill="white"/>
</g>
<rect x="1" y="1" width="180" height="63" rx="9" stroke="#C6C6C6" stroke-width="2"/>
<defs>
<clipPath id="clip0_3357_129420">
<rect width="99.5675" height="20" fill="white" transform="translate(68 31)"/>
</clipPath>
</defs>
</svg>
