<svg width="72" height="64" viewBox="0 0 72 64" fill="none" xmlns="http://www.w3.org/2000/svg">
<path d="M21.3179 14.5502C19.8592 10.6502 14.3552 9.79021 12.7898 10.6192C11.0012 11.5692 14.9656 17.6192 10.705 28.8362C8.94324 33.4602 7.30607 37.9752 6.97504 41.8102C5.6992 56.6102 21.6433 64.1002 32.19 60.1182L47.6965 54.1682" stroke="#4093F7" stroke-width="2" stroke-miterlimit="10"/>
<path d="M54.8971 27.1272V7.37521C54.9151 6.43308 54.5536 5.5164 53.8781 4.79149C53.2026 4.06658 52.2579 3.58149 51.2154 3.42422C46.4857 3.02422 42.3092 2.82422 38.1159 2.82422C33.9226 2.82422 29.7292 3.02422 24.9513 3.42422C23.917 3.58793 22.9823 4.07524 22.3154 4.79846C21.6485 5.52168 21.2932 6.43329 21.3134 7.36922V49.8082C21.2947 50.7503 21.6561 51.667 22.3317 52.3917C23.0073 53.1164 23.9524 53.601 24.995 53.7572C29.727 54.1572 34.2423 54.3572 38.8048 54.3572C42.7936 54.3855 46.781 54.2162 50.7486 53.8502C52.8806 53.5622 55.2023 52.2642 55.2023 50.3922" stroke="#4093F7" stroke-width="2" stroke-miterlimit="10"/>
<path d="M61.9698 36.5212C61.7022 35.9113 61.2331 35.3883 60.6245 35.0213C60.016 34.6543 59.2967 34.4607 58.5619 34.4662C58.0905 34.4641 57.6237 34.5475 57.1896 34.7112L53.2555 36.2442C52.3519 36.6076 51.642 37.2696 51.2757 38.0905C50.9093 38.9114 50.9151 39.827 51.2918 40.6442C51.5607 41.2529 52.03 41.7748 52.6381 42.1412C53.2461 42.5076 53.9644 42.7015 54.6985 42.6972C55.1711 42.6987 55.6391 42.6146 56.0742 42.4502L60.0016 40.9172C60.9062 40.5559 61.6175 39.895 61.9849 39.0745C62.3523 38.254 62.3468 37.3382 61.9698 36.5212V36.5212Z" stroke="#4093F7" stroke-width="2" stroke-miterlimit="10"/>
<path d="M56.1269 50.1803L59.684 48.7943C60.5013 48.4662 61.1435 47.8677 61.4747 47.1254C61.806 46.3831 61.8004 45.5551 61.4592 44.8163C61.2176 44.2655 60.7941 43.793 60.2447 43.4613C59.6954 43.1295 59.046 42.9542 58.3824 42.9583C57.9546 42.9564 57.5309 43.0319 57.1368 43.1803L53.5809 44.5643C52.763 44.8931 52.1206 45.4922 51.7891 46.2352C51.4577 46.9782 51.4632 47.8069 51.8046 48.5463C52.0477 49.0971 52.4724 49.5692 53.0226 49.9006C53.5729 50.2319 54.2229 50.4068 54.887 50.4023C55.313 50.4045 55.735 50.3289 56.1269 50.1803V50.1803Z" stroke="#4093F7" stroke-width="2" stroke-miterlimit="10"/>
<path d="M51.3097 32.1923C51.5789 32.8011 52.0485 33.3231 52.6567 33.6897C53.2649 34.0562 53.9833 34.2503 54.7176 34.2463C55.1891 34.2481 55.6561 34.164 56.0899 33.9993L58.7572 32.9153C59.6613 32.5525 60.3719 31.8906 60.7387 31.0696C61.1055 30.2486 61.1 29.3327 60.7231 28.5153C60.4539 27.9064 59.9844 27.3842 59.3762 27.0173C58.7681 26.6504 58.0497 26.4559 57.3153 26.4593C56.8422 26.4568 56.3736 26.5409 55.9384 26.7063L53.2734 27.7933C52.3688 28.1553 51.6578 28.817 51.2913 29.6382C50.9247 30.4593 50.9313 31.3754 51.3097 32.1923Z" stroke="#4093F7" stroke-width="2" stroke-miterlimit="10"/>
<path d="M34.0886 49.5693H42.1207" stroke="#4093F7" stroke-width="2" stroke-miterlimit="10" stroke-linecap="round"/>
<path d="M36.7155 6.88525H39.4927" stroke="#4093F7" stroke-width="2" stroke-miterlimit="10" stroke-linecap="round"/>
<path d="M21.3134 45.2651H52.4711" stroke="#4093F7" stroke-width="2" stroke-miterlimit="10"/>
<path d="M21.3134 10.6511H54.8971" stroke="#4093F7" stroke-width="2" stroke-miterlimit="10"/>
<path d="M54.8971 23.3782L62.0786 20.6402C63.1008 20.2296 63.9039 19.4809 64.3181 18.5524C64.7323 17.6238 64.7251 16.5881 64.2982 15.6642C64.143 15.2372 63.8913 14.8431 63.5586 14.5061C63.2259 14.1692 62.8193 13.8966 62.3638 13.7051C61.9084 13.5135 61.4137 13.4072 60.9104 13.3926C60.407 13.378 59.9057 13.4555 59.4372 13.6202C58.7908 13.7862 55.751 14.7432 54.8982 15.0622" stroke="#4093F7" stroke-width="2" stroke-miterlimit="10"/>
<path d="M32.8566 29.4342V27.7222C32.8451 27.6254 32.8666 27.5278 32.9182 27.442C32.9698 27.3562 33.0492 27.2863 33.1461 27.2412L43.9262 21.7922M47.4979 23.6572L38.4772 18.9152C38.3763 18.8622 38.2612 18.8342 38.144 18.8342C38.0268 18.8342 37.9117 18.8622 37.8107 18.9152L27.4727 24.2742C27.373 24.3257 27.2903 24.3997 27.2328 24.4887C27.1752 24.5777 27.145 24.6786 27.145 24.7812V33.6332C27.1451 33.7374 27.1764 33.8396 27.2355 33.9294C27.2947 34.0193 27.3796 34.0934 27.4816 34.1442L36.5708 38.7502C36.6697 38.8011 36.782 38.8277 36.8962 38.8272C37.0144 38.828 37.1307 38.8003 37.2328 38.7472L47.5035 33.3872C47.603 33.3358 47.6855 33.262 47.7428 33.1732C47.8001 33.0844 47.8302 32.9837 47.83 32.8812V24.1642C47.8293 24.0612 47.7982 23.9602 47.7399 23.8712C47.6816 23.7823 47.5982 23.7085 47.4979 23.6572Z" stroke="#4093F7" stroke-width="2" stroke-linecap="round" stroke-linejoin="round"/>
</svg>
