<svg width="71" height="64" viewBox="0 0 71 64" fill="none" xmlns="http://www.w3.org/2000/svg">
<path d="M21.092 14.5172C19.6585 10.625 14.2496 9.76767 12.7112 10.595C10.9535 11.5421 14.8494 17.5811 10.6635 28.7759C8.93105 33.3907 7.32328 37.8968 6.99797 41.7242C5.74305 56.4948 21.4118 63.97 31.7765 59.9949L47.0174 54.0567" stroke="#4093F7" stroke-width="2.00199" stroke-miterlimit="10"/>
<path d="M54.0969 27.0733V7.35844C54.1142 6.41828 53.7588 5.50363 53.095 4.78024C52.4313 4.05686 51.5031 3.57262 50.4788 3.41528C45.8308 3.01607 41.7253 2.81647 37.6044 2.81647C33.4835 2.81647 29.3625 3.01607 24.6682 3.42027C23.6519 3.5836 22.7334 4.06977 22.0778 4.79132C21.4223 5.51287 21.0727 6.42245 21.092 7.35645V49.7143C21.0738 50.6545 21.429 51.5695 22.0929 52.2929C22.7568 53.0163 23.6855 53.5001 24.7101 53.6565C29.3603 54.0557 33.7966 54.2553 38.2826 54.2553C42.2025 54.2821 46.121 54.1118 50.0201 53.7453C52.1153 53.4568 54.3958 52.1624 54.3958 50.2941" stroke="#4093F7" stroke-width="2.00199" stroke-miterlimit="10"/>
<path d="M61.0475 36.4476C60.7842 35.8392 60.3231 35.3175 59.7251 34.9515C59.1271 34.5854 58.4204 34.3923 57.6985 34.3977C57.2353 34.3957 56.7764 34.4788 56.3498 34.6422L52.4847 36.1712C51.5966 36.5337 50.8987 37.1943 50.5385 38.0136C50.1782 38.8328 50.1837 39.7468 50.5538 40.5624C50.8179 41.1701 51.279 41.6911 51.8767 42.0568C52.4743 42.4226 53.1803 42.6159 53.9018 42.6114C54.3659 42.613 54.8255 42.5292 55.2526 42.3649L59.1122 40.8359C60.0017 40.4755 60.7011 39.8159 61.0624 38.9967C61.4237 38.1775 61.4183 37.2633 61.0475 36.4476V36.4476Z" stroke="#4093F7" stroke-width="2.00199" stroke-miterlimit="10"/>
<path d="M55.3045 50.0806L58.8001 48.6973C59.6036 48.3698 60.2349 47.7724 60.5604 47.0313C60.886 46.2902 60.8803 45.4636 60.5447 44.7262C60.307 44.1767 59.8908 43.7053 59.3509 43.3744C58.8111 43.0435 58.173 42.8686 57.521 42.8729C57.1009 42.8703 56.6847 42.9457 56.298 43.0944L52.8035 44.4747C51.9997 44.803 51.3683 45.4012 51.0428 46.1429C50.7173 46.8846 50.7231 47.7118 51.0589 48.4498C51.2972 48.9993 51.7142 49.4705 52.2547 49.8011C52.7951 50.1316 53.4337 50.306 54.0859 50.3011C54.5045 50.3033 54.9191 50.2283 55.3045 50.0806Z" stroke="#4093F7" stroke-width="2.00199" stroke-miterlimit="10"/>
<path d="M50.5704 32.1272C50.8349 32.7348 51.2964 33.2557 51.8941 33.6216C52.4918 33.9874 53.1978 34.1811 53.9194 34.1771C54.383 34.179 54.8423 34.0954 55.2691 33.9316L57.8892 32.8498C58.7778 32.4876 59.476 31.8271 59.8365 31.0078C60.197 30.1884 60.1915 29.2743 59.8212 28.4585C59.557 27.8505 59.0957 27.3291 58.498 26.9629C57.9002 26.5967 57.194 26.4027 56.4722 26.4066C56.0077 26.4038 55.5476 26.4874 55.1203 26.6521L52.5013 27.7369C51.612 28.098 50.9131 28.7583 50.5527 29.5779C50.1922 30.3974 50.1986 31.3118 50.5704 32.1272V32.1272Z" stroke="#4093F7" stroke-width="2.00199" stroke-miterlimit="10"/>
<path d="M33.6478 49.4697H41.5412" stroke="#4093F7" stroke-width="2.00199" stroke-miterlimit="10" stroke-linecap="round"/>
<path d="M36.2293 6.87042H38.9575" stroke="#4093F7" stroke-width="2.00199" stroke-miterlimit="10" stroke-linecap="round"/>
<path d="M21.092 45.1753H51.7128" stroke="#4093F7" stroke-width="2.00199" stroke-miterlimit="10"/>
<path d="M21.092 10.6299H54.0969" stroke="#4093F7" stroke-width="2.00199" stroke-miterlimit="10"/>
<path d="M54.0969 23.3267L61.1544 20.5941C62.1591 20.1841 62.9483 19.4368 63.3553 18.5099C63.7623 17.583 63.7553 16.5492 63.3356 15.627C63.1831 15.2009 62.9358 14.8076 62.6088 14.4713C62.2819 14.1351 61.8822 13.863 61.4346 13.672C60.987 13.4809 60.5009 13.3749 60.0062 13.3605C59.5116 13.346 59.0189 13.4235 58.5586 13.588C57.9223 13.7537 54.9361 14.7078 54.098 15.0272" stroke="#4093F7" stroke-width="2.00199" stroke-miterlimit="10"/>
</svg>
