<svg width="87" height="71" viewBox="0 0 87 71" fill="none" xmlns="http://www.w3.org/2000/svg">
<g clip-path="url(#clip0_1_7077)">
<path d="M64.0665 44.7476C63.4211 44.7463 62.7888 44.8974 62.2445 45.1831C61.7002 45.4689 61.2668 45.8772 60.9956 46.3597V44.6934C60.9846 44.0043 60.674 43.3414 60.1201 42.825C59.5663 42.3086 58.806 41.973 57.9773 41.8792C57.1486 41.7854 56.3066 41.9396 55.6042 42.3138C54.9018 42.6879 54.3856 43.2573 54.1494 43.9183C54.1494 41.8092 52.948 40.4263 50.6673 40.4263C49.8408 40.4259 49.041 40.6676 48.4108 41.1081C47.7806 41.5486 47.3609 42.1593 47.2267 42.8311V31.0452C47.1716 30.314 46.7802 29.6277 46.1322 29.126C45.4842 28.6243 44.6284 28.345 43.7391 28.345C42.8499 28.345 41.9941 28.6243 41.3461 29.126C40.6981 29.6277 40.3067 30.314 40.2516 31.0452V49.3136C38.1012 45.9511 35.6405 44.5528 33.4565 44.5528H33.3933C32.6135 44.5452 31.8429 44.6921 31.1464 44.9811C30.4499 45.2702 29.8479 45.6928 29.391 46.2135C28.7835 47.3207 33.7427 49.1331 37.2572 56.2888C41.0633 64.0213 44.149 67.9141 53.46 67.9141C63.6593 67.9141 67.4627 62.0317 67.4627 58.2408V47.5454C67.4631 47.1779 67.3755 46.814 67.2049 46.4744C67.0344 46.1348 66.7842 45.8263 66.4688 45.5664C66.1533 45.3066 65.7788 45.1005 65.3666 44.96C64.9544 44.8195 64.5126 44.7473 64.0665 44.7476V44.7476Z" stroke="#4093F7" stroke-width="2.00199" stroke-linejoin="round"/>
<path d="M63.3449 28.4611C63.1261 28.0034 62.7443 27.611 62.2497 27.3355C61.755 27.06 61.1707 26.9143 60.5737 26.9177C60.1901 26.9158 59.8101 26.9783 59.4568 27.1015L56.2582 28.2541C55.5222 28.5272 54.944 29.0255 54.6458 29.6435C54.3476 30.2614 54.3528 30.9507 54.6602 31.5656C54.8791 32.0229 55.2608 32.415 55.7552 32.6902C56.2495 32.9655 56.8334 33.1111 57.4301 33.1079C57.8145 33.1093 58.1951 33.0456 58.5483 32.9208L61.7469 31.7704C62.4829 31.4979 63.0613 31.0001 63.3596 30.3824C63.6578 29.7647 63.6526 29.0756 63.3449 28.4611V28.4611Z" stroke="#4093F7" stroke-width="2.00199" stroke-miterlimit="10"/>
<path d="M58.5913 38.7323L61.4848 37.6916C62.1493 37.4451 62.6715 36.9954 62.9411 36.4376C63.2107 35.8798 63.2066 35.2576 62.9296 34.7022C62.7329 34.2882 62.3884 33.9331 61.9416 33.6836C61.4949 33.4342 60.9668 33.3021 60.4271 33.305C60.0795 33.3037 59.7353 33.3606 59.4151 33.4722L56.5216 34.5129C55.8578 34.7601 55.3363 35.2098 55.0671 35.7675C54.7978 36.3251 54.8018 36.947 55.0782 37.5023C55.2754 37.9166 55.6205 38.2719 56.0681 38.5212C56.5156 38.7705 57.0445 38.902 57.5847 38.8984C57.9305 38.9003 58.2731 38.8438 58.5913 38.7323V38.7323Z" stroke="#4093F7" stroke-width="2.00199" stroke-miterlimit="10"/>
<path d="M54.675 25.2115C54.8939 25.669 55.2758 26.0612 55.7705 26.3365C56.2651 26.6117 56.8493 26.7572 57.4462 26.7538C57.8299 26.7561 58.21 26.6936 58.5631 26.57L60.7309 25.754C61.4672 25.4815 62.0459 24.9836 62.3444 24.3657C62.6429 23.7478 62.6378 23.0584 62.3302 22.4436C62.1127 21.9846 61.7315 21.5908 61.2367 21.3141C60.742 21.0374 60.1569 20.8907 59.5589 20.8935C59.1745 20.8916 58.7938 20.9553 58.4408 21.0806L56.2729 21.8966C55.5355 22.1694 54.9561 22.6682 54.6578 23.2871C54.3595 23.906 54.3656 24.5963 54.675 25.2115V25.2115Z" stroke="#4093F7" stroke-width="2.00199" stroke-miterlimit="10"/>
<path d="M42.8051 6.1792H45.0616" stroke="#4093F7" stroke-width="2.00199" stroke-miterlimit="10" stroke-linecap="round"/>
<path d="M30.2754 9.01135H57.5914" stroke="#4093F7" stroke-width="2.00199" stroke-miterlimit="10"/>
<path d="M57.5927 18.5796L63.4322 16.5213C64.2641 16.2131 64.9177 15.6503 65.2546 14.952C65.5915 14.2537 65.5852 13.4748 65.2371 12.7802C65.1113 12.4592 64.9069 12.1628 64.6366 11.9094C64.3663 11.656 64.0358 11.4509 63.6655 11.3068C63.2953 11.1627 62.8931 11.0827 62.4838 11.0716C62.0746 11.0605 61.6669 11.1186 61.2859 11.2423C60.7591 11.3674 58.2862 12.0871 57.5927 12.3274" stroke="#4093F7" stroke-width="2.00199" stroke-miterlimit="10"/>
<path d="M53.4157 41.5523L54.2221 41.4892C55.9585 41.2678 57.844 40.2957 57.844 38.8896" stroke="#4093F7" stroke-width="2.00199" stroke-miterlimit="10"/>
<path d="M57.5927 21.3995V6.54789C57.6071 5.83962 57.3129 5.15055 56.7636 4.60559C56.2143 4.06062 55.4461 3.69584 54.5984 3.57734C50.752 3.27951 47.3544 3.12894 43.9448 3.12894C40.5352 3.12894 37.1228 3.27951 33.2375 3.58288C32.3969 3.7068 31.6376 4.07349 31.0957 4.61711C30.5538 5.16073 30.2649 5.84569 30.2808 6.549V38.4578C30.2657 39.1661 30.5598 39.8554 31.1096 40.4002C31.6594 40.9449 32.4283 41.309 33.2764 41.4261C35.6525 41.6132 37.9628 41.7406 40.257 41.8125" stroke="#4093F7" stroke-width="2.00199" stroke-miterlimit="10"/>
<path d="M47.2268 35.0366H55.6185" stroke="#4093F7" stroke-width="2.00199" stroke-miterlimit="10"/>
<path d="M30.2754 35.0366H40.2503" stroke="#4093F7" stroke-width="2.00199" stroke-miterlimit="10"/>
<path d="M30.2754 11.9409C29.09 9.01135 24.612 8.36144 23.3392 8.98478C21.8837 9.6989 25.1092 14.2483 21.6445 22.6816C20.1747 25.8248 19.1562 29.0988 18.6098 32.437C18.2041 35.4145 19.0483 38.4168 21.002 40.9441C22.9558 43.4714 25.9012 45.3713 29.3481 46.3276" stroke="#4093F7" stroke-width="2.00199" stroke-miterlimit="10"/>
</g>
<defs>
<clipPath id="clip0_1_7077">
<rect width="86.0134" height="70.8592" fill="white"/>
</clipPath>
</defs>
</svg>
