<svg width="72" height="64" viewBox="0 0 72 64" fill="none" xmlns="http://www.w3.org/2000/svg">
<path d="M17.8562 18.6561C16.5096 15.0561 11.4265 14.2561 9.97893 15.0251C8.32718 15.9031 11.9886 21.4901 8.05451 31.8521C6.42632 36.1221 4.91259 40.2921 4.6085 43.8331C3.43028 57.5071 18.1558 64.421 27.8979 60.743L42.2217 55.243" stroke="#4093F7" stroke-width="2" stroke-miterlimit="10"/>
<path d="M55.4099 38.9521C55.1625 38.3884 54.7289 37.905 54.1664 37.5657C53.604 37.2265 52.9393 37.0474 52.2601 37.0521C51.825 37.0499 51.3939 37.1268 50.9933 37.2781L47.361 38.6941C46.5246 39.0291 45.8674 39.6411 45.5285 40.4004C45.1897 41.1597 45.1957 42.0067 45.5454 42.7621C45.7927 43.3244 46.2252 43.8068 46.786 44.1459C47.3468 44.4851 48.0096 44.665 48.6873 44.6621C49.1237 44.664 49.556 44.5864 49.9576 44.4341L53.5887 43.0191C54.4264 42.6856 55.0852 42.0743 55.4252 41.3149C55.7653 40.5555 55.7598 39.7079 55.4099 38.9521V38.9521Z" stroke="#4093F7" stroke-width="2" stroke-miterlimit="10"/>
<path d="M50.0114 51.5661L53.297 50.2881C54.0522 49.9852 54.6456 49.4323 54.9516 48.7464C55.2576 48.0605 55.2521 47.2955 54.9364 46.6131C54.7131 46.1046 54.322 45.6684 53.8147 45.362C53.3075 45.0556 52.7079 44.8935 52.0952 44.8971C51.7006 44.8937 51.3093 44.9618 50.945 45.0971L47.6606 46.3781C46.905 46.6818 46.3116 47.2355 46.0056 47.922C45.6997 48.6085 45.7053 49.3742 46.0212 50.0571C46.2452 50.5655 46.6371 51.0015 47.1449 51.3073C47.6528 51.6131 48.2528 51.7745 48.8657 51.7701C49.2593 51.7727 49.6492 51.7033 50.0114 51.5661V51.5661Z" stroke="#4093F7" stroke-width="2" stroke-miterlimit="10"/>
<path d="M45.5622 34.952C45.811 35.5145 46.2446 35.9969 46.8062 36.3359C47.3679 36.6749 48.0314 36.8548 48.7098 36.852C49.1454 36.8537 49.5769 36.7761 49.9777 36.624L52.4464 35.624C53.2826 35.2888 53.9396 34.6769 54.2787 33.9177C54.6177 33.1586 54.6121 32.3116 54.2631 31.5561C54.0143 30.9934 53.5805 30.511 53.0186 30.1719C52.4567 29.8329 51.793 29.653 51.1144 29.6561C50.678 29.6537 50.2456 29.7313 49.8442 29.8841L47.3823 30.8841C46.5451 31.2183 45.8869 31.83 45.5472 32.5893C45.2074 33.3487 45.2128 34.1962 45.5622 34.952V34.952Z" stroke="#4093F7" stroke-width="2" stroke-miterlimit="10"/>
<path d="M29.6574 51.002H37.0768" stroke="#4093F7" stroke-width="2" stroke-miterlimit="10" stroke-linecap="round"/>
<path d="M17.8561 47.0281H46.635" stroke="#4093F7" stroke-width="2" stroke-miterlimit="10"/>
<path d="M17.8561 15.0581H29.0021" stroke="#4093F7" stroke-width="2" stroke-miterlimit="10"/>
<path d="M42.6818 30.1461C43.6782 29.9461 67.1439 25.2861 67.2729 14.3681C67.2578 13.0654 66.9478 11.7788 66.3614 10.5854C65.7751 9.39209 64.9245 8.31648 63.8606 7.42307C60.2833 4.20207 54.3978 2.27905 48.1207 2.27905C37.5594 2.27905 28.9673 7.69708 28.9673 14.3561C28.9673 16.1921 29.6754 20.6071 36.224 21.9561C41.3768 23.0181 42.8322 24.4681 43.1464 25.4991C43.6199 27.0501 41.7998 28.6081 41.7841 28.6231C41.6245 28.7566 41.5183 28.9329 41.4816 29.1252C41.445 29.3174 41.4799 29.5151 41.581 29.6881C41.6802 29.8634 41.8427 30.0039 42.0424 30.087C42.242 30.1701 42.4673 30.1909 42.6818 30.1461V30.1461Z" stroke="#4093F7" stroke-width="2" stroke-linejoin="round"/>
<path d="M38.264 11.05H57.9773" stroke="#4093F7" stroke-width="2" stroke-linejoin="round"/>
<path d="M38.264 16.8691H57.9773" stroke="#4093F7" stroke-width="2" stroke-linejoin="round"/>
<path d="M31.9802 7.86499C29.0504 7.93499 24.5271 8.109 21.2169 8.388C20.2608 8.53821 19.3962 8.98774 18.7791 9.65564C18.1619 10.3235 17.8326 11.1659 17.8506 12.031V51.231C17.8336 52.1022 18.1682 52.9498 18.7935 53.6197C19.4187 54.2896 20.293 54.7371 21.2573 54.881C25.6279 55.252 29.7977 55.431 34.0135 55.431C37.6976 55.4557 41.3804 55.2981 45.0449 54.959C47.0154 54.691 49.1575 53.493 49.1575 51.759" stroke="#4093F7" stroke-width="2" stroke-miterlimit="10"/>
</svg>
