<svg width="72" height="64" viewBox="0 0 72 64" fill="none" xmlns="http://www.w3.org/2000/svg">
<path d="M62.8072 53.7541V42.7962C62.8072 36.6212 57.7217 32.4462 50.584 30.7702L43.1084 36.1552L35.6329 30.7692C30.978 31.8642 27.2067 34.0242 25.1399 37.1062" stroke="#4093F7" stroke-width="2" stroke-linejoin="round"/>
<path d="M42.9139 6.34814C40.5675 6.34834 38.2739 6.97061 36.323 8.13626C34.3721 9.30191 32.8517 10.9586 31.9538 12.8969C31.0559 14.8351 30.821 16.9679 31.2787 19.0255C31.7365 21.0832 32.8663 22.9732 34.5253 24.4568C36.1844 25.9403 38.2982 26.9507 40.5994 27.3601C42.9007 27.7696 45.2861 27.5597 47.4539 26.7571C49.6218 25.9545 51.4748 24.5952 52.7787 22.851C54.0826 21.1068 54.7788 19.0561 54.7792 16.9581C54.7795 15.5648 54.4728 14.1851 53.8766 12.8978C53.2805 11.6105 52.4065 10.4408 51.3047 9.45551C50.2028 8.47024 48.8947 7.6887 47.455 7.15553C46.0153 6.62236 44.4722 6.34801 42.9139 6.34814V6.34814Z" stroke="#4093F7" stroke-width="2" stroke-linejoin="round"/>
<path d="M6.11108 53.1291C6.11094 53.2115 6.12897 53.293 6.16418 53.3691C6.19938 53.4452 6.25105 53.5143 6.31622 53.5724C6.38138 53.6306 6.45875 53.6767 6.54389 53.708C6.62903 53.7394 6.72026 53.7554 6.81233 53.7551H33.8188C33.9109 53.7553 34.002 53.7392 34.0871 53.7078C34.1722 53.6764 34.2495 53.6303 34.3146 53.5721C34.3798 53.514 34.4314 53.4449 34.4667 53.3689C34.5019 53.2929 34.5201 53.2114 34.5201 53.1291V48.1401H6.11108V53.1291Z" stroke="#4093F7" stroke-width="2" stroke-linejoin="round"/>
<path d="M68.1376 57.6511H3.44031" stroke="#4093F7" stroke-width="2" stroke-linejoin="round"/>
<path d="M33.1098 39.7522C33.0776 39.6109 32.9917 39.484 32.8667 39.3929C32.7418 39.3018 32.5854 39.2521 32.4242 39.2522H8.21821C8.05683 39.252 7.90035 39.3017 7.77522 39.3928C7.65008 39.4839 7.56398 39.6109 7.5315 39.7522L6.1167 45.1042V48.1402H34.5246V45.1042L33.1098 39.7522Z" stroke="#4093F7" stroke-width="2" stroke-linejoin="round"/>
<path d="M20.919 30.3441H7.65454V35.8361H20.919V30.3441Z" stroke="#4093F7" stroke-width="2" stroke-linejoin="round"/>
<path d="M14.2867 35.8362V39.2512" stroke="#4093F7" stroke-width="2" stroke-linejoin="round"/>
</svg>
