<svg width="72" height="65" viewBox="0 0 72 65" fill="none" xmlns="http://www.w3.org/2000/svg">
<g clip-path="url(#clip0_1_7076)">
<path d="M13.8693 28.8163L17.9892 24.2758" stroke="#4093F7" stroke-width="1.75174" stroke-miterlimit="10"/>
<path d="M53.5468 28.497C55.4085 28.4972 57.2283 27.9977 58.7763 27.0618C60.3244 26.1258 61.5309 24.7955 62.2435 23.2389C62.956 21.6823 63.1425 19.9694 62.7793 18.3169C62.4162 16.6644 61.5198 15.1465 60.2034 13.9551C58.887 12.7637 57.2097 11.9524 55.3838 11.6237C53.5579 11.2951 51.6654 11.4638 49.9455 12.1087C48.2255 12.7536 46.7556 13.8456 45.7214 15.2466C44.6873 16.6476 44.1354 18.2947 44.1356 19.9795C44.1356 22.2385 45.1271 24.405 46.8921 26.0023C48.657 27.5996 51.0508 28.497 53.5468 28.497V28.497Z" stroke="#4093F7" stroke-width="2.00199" stroke-linecap="round" stroke-linejoin="round"/>
<path d="M34.5298 32.574C34.5291 32.4688 34.4971 32.3656 34.4372 32.2754C34.3773 32.1853 34.2915 32.1114 34.1891 32.0615L32.0623 31.0265C31.9488 30.9714 31.8201 30.9471 31.6917 30.9564L13.1713 32.1826C12.9867 32.197 12.8137 32.2702 12.6831 32.3891C12.5525 32.5081 12.4727 32.6651 12.458 32.8323L11.1031 51.5438C11.0908 51.6694 11.123 51.7953 11.195 51.9033C11.2669 52.0112 11.375 52.0957 11.5034 52.1445L14.8016 53.3747C14.9012 53.411 15.0087 53.4261 15.1157 53.4187L34.3119 52.1505C34.5085 52.1362 34.6916 52.0546 34.824 51.9222C34.9571 51.7916 35.0292 51.6194 35.0253 51.4417L34.5298 32.574Z" stroke="#4093F7" stroke-width="2.00199" stroke-linecap="round" stroke-linejoin="round"/>
<path d="M24.8133 15.8764C26.8329 16.5521 28.2984 19.2798 27.5441 21.7423C27.1744 22.8375 26.4057 23.7871 25.3632 24.4362C24.3208 25.0853 23.0662 25.3957 21.8038 25.3168C19.8805 25.3008 18.3309 25.0295 17.7226 23.8964C17.1519 22.8343 17.643 21.2197 18.165 19.519C18.9138 17.0996 19.3617 15.422 21.8879 15.392C22.886 15.4048 23.8748 15.5686 24.8133 15.8764V15.8764Z" stroke="#4093F7" stroke-width="2.00199" stroke-linecap="round" stroke-linejoin="round"/>
<path d="M29.7716 42.4738C29.8977 44.4348 27.6182 46.1495 24.6839 46.3046C21.7496 46.4598 19.2644 44.9983 19.1339 43.0384C19.0034 41.0785 21.2862 39.3627 24.2216 39.2076C27.157 39.0524 29.6444 40.5139 29.7716 42.4738Z" stroke="#4093F7" stroke-width="2.00199" stroke-linecap="round" stroke-linejoin="round"/>
<path d="M16.9938 31.9274L19.8905 25.3168" stroke="#4093F7" stroke-width="2.00199" stroke-linecap="round" stroke-linejoin="round"/>
<path d="M29.2916 31.1155L26.1019 23.9154" stroke="#4093F7" stroke-width="2.00199" stroke-linecap="round" stroke-linejoin="round"/>
<path d="M27.7466 31.2176L10.1442 28.2827C9.96079 28.2613 9.77503 28.3 9.62045 28.3918C9.46587 28.4836 9.35269 28.6225 9.30138 28.7832L3.49917 47.0464C3.45647 47.1671 3.45608 47.2969 3.49806 47.4178C3.54003 47.5388 3.6223 47.645 3.73362 47.722L6.58718 49.6169C6.67168 49.6739 6.7705 49.7111 6.87476 49.725L11.1882 50.3446" stroke="#4093F7" stroke-width="2.00199" stroke-linecap="round" stroke-linejoin="round"/>
<path d="M66.7804 53.4167L68.5245 43.5389C69.4536 36.0364 63.5231 32.4849 54.0113 32.0014C40.1749 31.3007 32.5964 24.6942 27.7023 19.7343" stroke="#4093F7" stroke-width="2.00199" stroke-linecap="round" stroke-linejoin="round"/>
<path d="M58.608 44.67L57.3549 53.4167" stroke="#4093F7" stroke-width="2.00199" stroke-linecap="round" stroke-linejoin="round"/>
<path d="M34.6381 36.569C36.8799 37.944 39.3217 39.0308 41.8936 39.7982L39.5334 53.4117" stroke="#4093F7" stroke-width="2.00199" stroke-linecap="round" stroke-linejoin="round"/>
<path d="M23.6542 25.1107C24.6741 27.4244 26.2583 29.4997 28.2885 31.1817" stroke="#4093F7" stroke-width="2.00199" stroke-linecap="round" stroke-linejoin="round"/>
</g>
<defs>
<clipPath id="clip0_1_7076">
<rect width="70.7856" height="64.0636" fill="white" transform="translate(0.652222 0.406128)"/>
</clipPath>
</defs>
</svg>
